# AST/ASF file generated using VICON BodyLanguage
# -----------------------------------------------
:version 1.10
:name VICON
:units
  mass 1.0
  length 0.45
  angle deg
:documentation
   .ast/.asf automatically generated from VICON data using
   VICON BodyBuilder and BodyLanguage model FoxedUp or BRILLIANT.MOD
:root
   order TX TY TZ RX RY RZ
   axis XYZ
   position 0 0 0  
   orientation 0 0 0 
:bonedata
  begin
     id 1 
     name lhipjoint
     direction 0.54267 -0.795011 0.271047 
     length 2.39899 
     axis 0 0 0  XYZ
  end
  begin
     id 2 
     name lfemur
     direction 0.34202 -0.939693 0  
     length 7.49701  
     axis 0 0 20  XYZ
    dof rx ry rz
    limits (-160.0 20.0)
           (-70.0 70.0)
           (-60.0 70.0)
  end
  begin
     id 3 
     name ltibia
     direction 0.34202 -0.939693 0   
     length 8.1668   
     axis 0 0 20   XYZ
    dof rx
    limits (-10.0 170.0)
  end
  begin
     id 4 
     name lfoot
     direction 0.0736283 -0.202292 0.976554   
     length 2.13544   
     axis -90 7.62852e-016 20   XYZ
    dof rx rz
    limits (-45.0 90.0)
           (-70.0 20.0)
  end
  begin
     id 5 
     name ltoes
     direction 1.53557e-011 -4.22024e-011 1   
     length 1.07411   
     axis -90 7.62852e-016 20   XYZ
    dof rx
    limits (-90.0 20.0)
  end
  begin
     id 6 
     name rhipjoint
     direction -0.538061 -0.797813 0.272002   
     length 2.39057  
     axis 0 0 0  XYZ 
  end
  begin
     id 7 
     name rfemur
     direction -0.34202 -0.939693 0   
     length 7.50152   
     axis 0 0 -20   XYZ
    dof rx ry rz
    limits (-160.0 20.0)
           (-70.0 70.0)
           (-70.0 60.0)
  end
  begin
     id 8 
     name rtibia
     direction -0.34202 -0.939693 0   
     length 8.05793   
     axis 0 0 -20   XYZ
    dof rx
    limits (-10.0 170.0)
 end
 begin
     id 9 
     name rfoot
     direction -0.0765195 -0.210236 0.974652   
     length 2.28698  
     axis -90 -7.62852e-016 -20   XYZ
    dof rx rz
    limits (-45.0 90.0)
           (-20.0 70.0)
  end
  begin
     id 10 
     name rtoes
     direction -1.53542e-011 -4.21847e-011 1   
     length 1.14762   
     axis -90 -7.62852e-016 -20   XYZ
    dof rx
    limits (-90.0 20.0)
  end
  begin
     id 11 
     name lowerback
     direction -0.0217239 0.996592 -0.0795765   
     length 2.08176   
     axis 0 0 0   XYZ
    dof rx ry rz
    limits (-20.0 45.0)
           (-30.0 30.0)
           (-30.0 30.0)
  end
  begin
     id 12 
     name upperback
     direction -0.00563773 0.999651 -0.0258155   
     length 2.08898   
     axis 0 0 0   XYZ
    dof rx ry rz
    limits (-20.0 45.0)
           (-30.0 30.0)
           (-30.0 30.0)
  end
  begin
     id 13 
     name thorax
     direction 0.0032706 0.999923 0.0119599   
     length 2.0968   
     axis 0 0 0   XYZ
    dof rx ry rz
    limits (-20.0 45.0)
           (-30.0 30.0)
           (-30.0 30.0)
  end
  begin
     id 14 
     name lowerneck
     direction -0.0285886 0.99568 0.0883427   
     length 1.81272   
     axis 0 0 0   XYZ
    dof rx ry rz
    limits (-20.0 45.0)
           (-30.0 30.0)
           (-30.0 30.0)
  end
  begin
     id 15 
     name upperneck
     direction 0.0807535 0.97985 -0.18268   
     length 1.82518   
     axis 0 0 0   XYZ
    dof rx ry rz
    limits (-20.0 45.0)
           (-30.0 30.0)
           (-30.0 30.0)
  end
  begin
     id 16
     name head
     direction 0.0236605 0.997053 -0.0729767  
     length 1.84443  
     axis 0 0 0   XYZ
    dof rx ry rz
    limits (-20.0 45.0)
           (-30.0 30.0)
           (-30.0 30.0)
  end
  begin
     id 17 
     name lclavicle
     direction 0.918986 0.39378 -0.0200683  
     length 3.27822  
     axis 0 0 0   XYZ
    dof ry rz
    limits (-20.0 10.0)
           (0.0 20.0)
  end
  begin
     id 18 
     name lhumerus
     direction 1 -4.4897e-011 2.09544e-027   
     length 5.5568   
     axis 180 -30 -90   XYZ
    dof rx ry rz
    limits (-60.0 90.0)
           (-90.0 90.0)
           (-90.0 90.0)
  end
  begin
     id 19
     name lradius
     direction 1 -4.48957e-011 -1.27696e-026   
     length 3.63979   
     axis 180 -30 -90   XYZ
    dof rx
    limits (-10.0 170.0)
  end
  begin
     id 20
     name lwrist
     direction 1 -4.49001e-011 -1.49001e-026   
     length 1.8199   
     axis 9.0955e-015 90 90   XYZ
    dof ry
    limits (-180.0 0.0)
 end
  begin
     id 21 
     name lhand
     direction 1 -4.48709e-011 -2.9758e-026   
     length 0.569419   
     axis 1.90115e-014 90 90   XYZ
    dof rx rz
    limits (-90.0 90.0)
           (-45.0 45.0)
  end
  begin
     id 22 
     name lfingers
     direction 1 -4.49175e-011 -5.96505e-026   
     length 0.45908   
     axis 3.80223e-014 90 90   XYZ
    dof rx
    limits (0.0 90.0)
  end
  begin
     id 23
     name lthumb
     direction 0.707107 -6.34864e-011 0.707107   
     length 0.65915   
     axis -90 45 -3.84942e-014   XYZ
    dof rx rz
    limits (-45.0 45.0)
           (-45.0 45.0)
  end
  begin
     id 24 
     name rclavicle
     direction -0.911913 0.396426 -0.106115   
     length 3.46301  
     axis 0 0 0   XYZ 
    dof ry rz
    limits (-10.0 20.0)
           (-20.0 0.0)
  end
  begin
     id 25 
     name rhumerus
     direction -1 -4.48965e-011 7.78516e-028  
     length 5.34339   
     axis 180 30 90   XYZ
    dof rx ry rz
    limits (-90.0 60.0)
           (-90.0 90.0)
           (-90.0 90.0)
  end
  begin
     id 26 
     name rradius
     direction -1 -4.48948e-011 -5.79823e-027   
     length 3.65101   
     axis 180 30 90   XYZ
    dof rx
    limits (-10.0 170.0)
  end
  begin
     id 27 
     name rwrist
     direction -1 -4.48995e-011 -1.48996e-026   
     length 1.8255   
     axis 9.0955e-015 -90 -90   XYZ
    dof ry
    limits (-180.0 0.0)
  end
  begin
     id 28
     name rhand
     direction -1 -4.48957e-011 -2.97937e-026   
     length 0.694249   
     axis 1.90115e-014 -90 -90   XYZ
    dof rx rz
    limits (-90.0 90.0)
           (-45.0 45.0)
  end
  begin
     id 29
     name rfingers
     direction -1 -4.4898e-011 -5.95943e-026   
     length 0.559721   
     axis 3.80223e-014 -90 -90   XYZ
    dof rx
    limits (0.0 90.0)
  end
  begin
     id 30
     name rthumb
     direction -0.707107 -6.34969e-011 0.707107   
     length 0.803651   
     axis -90 -45 3.84942e-014   XYZ
    dof rx rz
    limits (-45.0 45.0)
           (-45.0 45.0)
  end
:hierarchy
  begin
    root lhipjoint rhipjoint lowerback
    lhipjoint lfemur
    lfemur ltibia
    ltibia lfoot
    lfoot ltoes
    rhipjoint rfemur
    rfemur rtibia
    rtibia rfoot
    rfoot rtoes
    lowerback upperback
    upperback thorax
    thorax lowerneck lclavicle rclavicle
    lowerneck upperneck
    upperneck head
    lclavicle lhumerus
    lhumerus lradius
    lradius lwrist
    lwrist lhand lthumb
    lhand lfingers
    rclavicle rhumerus
    rhumerus rradius
    rradius rwrist
    rwrist rhand rthumb
    rhand rfingers
  end

#!OML:ASF H:\Terrain\Walking\May29\JustinRory\rory.ASF
:FULLY-SPECIFIED
:DEGREES
395
root 15.2704 17.844 -7.82078 4.99582 -41.8895 0.040973
lowerback 0.866629 4.14306 1.67892
upperback 2.88434 5.49936 0.0287107
thorax 2.63335 2.77866 -0.818537
lowerneck 2.74105 0.297733 8.05854e-006
upperneck 1.12472 0.390701 1.10989
head -0.107268 0.189574 0.330863
rclavicle -1.33186e-014 7.55382e-015
rhumerus 52.0972 7.91034 -40.7695
rradius 62.4367
rwrist -12.8692
rhand -5.47467 31.4942
rfingers 7.12502
rthumb 20.3373 2.53905
lclavicle -1.33186e-014 7.55382e-015
lhumerus 39.1643 1.79733 26.5237
lradius 68.1375
lwrist 12.2816
lhand -0.489166 28.1441
lfingers 7.12502
lthumb 25.1218 56.5113
rfemur 12.9877 3.22207 22.8612
rtibia 14.008
rfoot -14.3412 -13.4753
rtoes -11.949
lfemur -35.5776 -1.68668 -14.2951
ltibia 22.3463
lfoot -5.17067 13.0936
ltoes 0.59548
396
root 15.1889 17.8666 -7.66823 5.19037 -41.7056 -0.0408459
lowerback 0.970383 3.80663 1.35644
upperback 2.61803 5.0516 0.352378
thorax 2.22909 2.54147 -0.340885
lowerneck 3.17015 0.559756 -0.661361
upperneck 1.12869 0.718492 0.980388
head -0.180406 0.35026 0.396084
rclavicle -3.71727e-014 -9.54166e-015
rhumerus 50.0507 7.4548 -41.9765
rradius 65.9359
rwrist -14.5118
rhand -5.79002 30.7974
rfingers 7.12502
rthumb 20.0342 1.81029
lclavicle -3.71727e-014 -9.54166e-015
lhumerus 36.1771 3.52374 26.9642
lradius 71.1589
lwrist 14.3844
lhand -0.689387 28.9571
lfingers 7.12502
lthumb 24.9299 57.3511
rfemur 12.9216 3.05189 22.659
rtibia 14.7894
rfoot -13.4335 -12.7629
rtoes -14.6432
lfemur -35.6939 -2.46137 -14.1166
ltibia 22.8694
lfoot -4.56731 13.756
ltoes -0.115208
397
root 15.1071 17.8845 -7.50714 4.98526 -41.4067 0.28773
lowerback 1.20539 3.49146 0.867185
upperback 2.45989 4.63675 0.416522
thorax 1.88225 2.3233 -0.0342818
lowerneck 3.32175 0.786019 -0.755103
upperneck 1.04011 1.01611 0.799955
head -0.233897 0.499138 0.35287
rclavicle 5.80451e-014 -3.18055e-015
rhumerus 47.7576 6.74841 -42.8272
rradius 69.522
rwrist -16.0113
rhand -7.6702 30.1708
rfingers 7.12502
rthumb 18.2261 1.00472
lclavicle 5.80451e-014 -3.18055e-015
lhumerus 33.3072 5.27821 27.0031
lradius 74.3016
lwrist 16.5381
lhand -1.16954 28.6191
lfingers 7.12502
lthumb 24.4697 57.0761
rfemur 12.699 2.71734 22.0525
rtibia 16.2121
rfoot -12.9695 -11.8379
rtoes -15.664
lfemur -35.6066 -3.48741 -14.1934
ltibia 23.3504
lfoot -4.12012 14.0039
ltoes -1.4581
398
root 15.0265 17.8987 -7.3447 4.77206 -41.0696 0.614941
lowerback 1.58656 3.20164 0.75036
upperback 2.26732 4.25993 0.102429
thorax 1.48301 2.13554 -0.323303
lowerneck 3.24676 0.88925 -0.332003
upperneck 1.08829 1.1682 0.790412
head -0.205008 0.576565 0.279394
rclavicle 4.52235e-014 -2.0276e-014
rhumerus 45.1472 5.77965 -44.0553
rradius 73.042
rwrist -16.9951
rhand -11.0546 29.5725
rfingers 7.12502
rthumb 14.9679 0.133423
lclavicle 4.52235e-014 -2.0276e-014
lhumerus 30.5526 6.90421 26.474
lradius 77.6542
lwrist 18.844
lhand -1.37381 28.7005
lfingers 7.12502
lthumb 24.2739 57.1838
rfemur 12.2211 2.23636 21.4258
rtibia 18.1427
rfoot -12.4255 -10.8479
rtoes -16.4891
lfemur -35.4862 -3.96129 -14.5221
ltibia 23.737
lfoot -2.34846 13.1767
ltoes -4.44523
399
root 14.9489 17.9055 -7.1944 4.74561 -40.8127 0.560214
lowerback 1.37882 3.15715 0.407169
upperback 2.64262 4.19286 0.226542
thorax 1.95005 2.09488 0.0198633
lowerneck 2.62472 0.740769 -0.0948914
upperneck 0.937328 0.980577 0.621417
head -0.145765 0.485876 0.193679
rclavicle 3.15571e-014 -1.47101e-014
rhumerus 42.8012 3.61326 -45.1078
rradius 76.3562
rwrist -18.1358
rhand -12.4623 29.2121
rfingers 7.12502
rthumb 13.6114 -0.322936
lclavicle 3.15571e-014 -1.47101e-014
lhumerus 28.2725 9.01483 26.9629
lradius 80.9922
lwrist 20.7851
lhand -1.48732 29.0337
lfingers 7.12502
lthumb 24.165 57.5315
rfemur 11.472 1.69639 21.1617
rtibia 20.4391
rfoot -11.3485 -10.1801
rtoes -20.045
lfemur -35.3708 -3.91879 -14.6883
ltibia 24.1584
lfoot -0.585199 11.8157
ltoes -8.34071
400
root 14.8698 17.9116 -7.0445 4.48649 -40.4722 0.675236
lowerback 1.66769 3.15342 0.194294
upperback 2.82716 4.18809 0.0791451
thorax 1.97386 2.08945 -0.0234753
lowerneck 1.90622 0.56199 0.19739
upperneck 1.04232 0.746342 0.964265
head 0.00264854 0.370899 0.253579
rclavicle -4.24405e-014 3.57812e-015
rhumerus 39.9594 1.19271 -46.306
rradius 79.5422
rwrist -19.6699
rhand -11.9751 29.1689
rfingers 7.12502
rthumb 14.081 -0.334094
lclavicle -4.24405e-014 3.57812e-015
lhumerus 26.1345 10.7218 27.337
lradius 84.0797
lwrist 22.529
lhand -1.4491 28.5819
lfingers 7.12502
lthumb 24.2017 57.0749
rfemur 10.6496 1.15389 20.7678
rtibia 23.0555
rfoot -10.5668 -9.54029
rtoes -21.3747
lfemur -35.1055 -3.78166 -15.1271
ltibia 24.6672
lfoot 0.855969 10.7465
ltoes -3.25109
401
root 14.7902 17.9164 -6.8944 4.08768 -40.1174 1.04233
lowerback 1.96425 3.0905 -0.314938
upperback 2.99488 4.10164 -0.0778306
thorax 1.95589 2.03699 0.08643
lowerneck 1.11771 0.484495 0.408943
upperneck 1.26418 0.635876 1.3676
head 0.196174 0.320163 0.344145
rclavicle -2.35063e-014 2.50469e-014
rhumerus 36.8051 -0.866392 -46.5693
rradius 82.7801
rwrist -20.7087
rhand -12.362 28.8607
rfingers 7.12502
rthumb 13.7081 -0.66782
lclavicle -2.35063e-014 2.50469e-014
lhumerus 23.676 12.6447 27.6283
lradius 86.7413
lwrist 24.1883
lhand -0.710797 27.9348
lfingers 7.12502
lthumb 24.9094 56.3316
rfemur 9.71488 0.649558 20.1311
rtibia 25.8635
rfoot -10.0272 -8.75432
rtoes -19.4151
lfemur -34.7158 -3.497 -15.8975
ltibia 25.2092
lfoot 1.71842 9.94511
ltoes 3.79148
402
root 14.7103 17.9228 -6.74038 3.52445 -39.8765 1.77898
lowerback 2.34077 3.0675 -1.18519
upperback 3.01638 4.06051 -0.232569
thorax 1.71881 2.00125 0.38883
lowerneck 0.461992 0.373955 0.510581
upperneck 1.5273 0.476089 1.62731
head 0.382823 0.24599 0.409086
rclavicle -3.89121e-014 -2.38542e-015
rhumerus 32.8602 -2.59937 -45.7498
rradius 86.0579
rwrist -21.8484
rhand -13.1002 28.5501
rfingers 7.12502
rthumb 12.9966 -1.02505
lclavicle -3.89121e-014 -2.38542e-015
lhumerus 20.9002 14.3849 27.9459
lradius 89.204
lwrist 25.5238
lhand 0.0319099 26.9992
lfingers 7.12502
lthumb 25.6209 55.2956
rfemur 8.65002 0.0787402 19.0883
rtibia 28.6625
rfoot -8.88761 -7.80884
rtoes -19.0604
lfemur -34.3614 -2.96425 -17.0515
ltibia 25.856
lfoot 2.08677 8.90178
ltoes 6.00712
403
root 14.6323 17.9413 -6.58348 2.783 -39.63 2.81384
lowerback 2.63564 3.06857 -2.13215
upperback 3.02615 4.04469 -0.433203
thorax 1.51485 1.97838 0.6914
lowerneck 0.266298 0.129353 0.265679
upperneck 1.39506 0.146489 1.9731
head 0.3771 0.0814858 0.553995
rclavicle -7.89175e-014 5.56597e-015
rhumerus 28.9182 -4.4223 -45.0978
rradius 88.8259
rwrist -22.6026
rhand -13.3133 28.712
rfingers 7.12502
rthumb 12.7912 -0.876187
lclavicle -7.89175e-014 5.56597e-015
lhumerus 18.0485 15.9363 28.1488
lradius 91.5537
lwrist 26.512
lhand 0.220128 26.1108
lfingers 7.12502
lthumb 25.8012 54.3811
rfemur 7.54612 -0.589222 17.7481
rtibia 31.3776
rfoot -7.2857 -6.83145
rtoes -19.9775
lfemur -34.1552 -2.31141 -18.4992
ltibia 26.5933
lfoot 2.38797 7.70834
ltoes 2.60351
404
root 14.5589 17.9616 -6.42713 2.23858 -39.2814 3.63526
lowerback 2.79755 2.9843 -2.94735
upperback 3.05005 3.91476 -0.479753
thorax 1.40328 1.89945 1.08911
lowerneck -0.0911362 -0.153742 -0.0550229
upperneck 1.53145 -0.235571 2.05733
head 0.481995 -0.107509 0.632351
rclavicle 3.27995e-014 -2.48481e-014
rhumerus 25.5985 -6.24321 -44.8933
rradius 90.9903
rwrist -22.523
rhand -13.3276 28.2749
rfingers 7.12502
rthumb 12.7774 -1.31411
lclavicle 3.27995e-014 -2.48481e-014
lhumerus 14.8166 17.5037 28.2737
lradius 93.744
lwrist 27.5014
lhand 0.359197 26.0929
lfingers 7.12502
lthumb 25.9344 54.3438
rfemur 6.43235 -1.28368 16.5921
rtibia 33.9894
rfoot -5.9468 -5.96274
rtoes -19.4402
lfemur -34.0319 -1.65094 -19.7849
ltibia 27.2901
lfoot 2.5039 6.60785
ltoes 0.484438
405
root 14.4883 17.9755 -6.27211 1.87975 -38.875 4.12533
lowerback 2.89514 2.87804 -3.40496
upperback 3.1381 3.76292 -0.515529
thorax 1.42001 1.81369 1.30693
lowerneck -0.40604 -0.399909 -0.302763
upperneck 1.64109 -0.565344 2.09287
head 0.572701 -0.270819 0.683017
rclavicle -1.70458e-014 9.93923e-015
rhumerus 22.2824 -8.10019 -44.6981
rradius 92.948
rwrist -22.4344
rhand -13.0142 27.4901
rfingers 7.12502
rthumb 13.0795 -2.07978
lclavicle -1.70458e-014 9.93923e-015
lhumerus 11.5179 19.0407 28.2828
lradius 95.6238
lwrist 28.6765
lhand -0.378457 26.5538
lfingers 7.12502
lthumb 25.2278 54.9061
rfemur 5.42458 -1.83176 15.7831
rtibia 36.4752
rfoot -5.03254 -5.23249
rtoes -18.8776
lfemur -33.8149 -1.10431 -20.7801
ltibia 27.9123
lfoot 2.52956 5.53102
ltoes -0.817927
406
root 14.4178 17.9892 -6.12085 1.46719 -38.6628 4.39035
lowerback 3.1845 2.80073 -3.60103
upperback 3.32165 3.64541 -0.535245
thorax 1.44296 1.74784 1.38864
lowerneck -0.282954 -0.454038 -0.798239
upperneck 1.09482 -0.626856 2.37446
head 0.390118 -0.306213 0.851923
rclavicle -4.70126e-014 -1.03368e-014
rhumerus 18.9424 -9.91106 -44.4465
rradius 94.5496
rwrist -22.5497
rhand -12.6651 27.9675
rfingers 7.12502
rthumb 13.416 -1.58045
lclavicle -4.70126e-014 -1.03368e-014
lhumerus 8.03523 20.6187 28.1414
lradius 97.1301
lwrist 29.5474
lhand -1.97904 26.5004
lfingers 7.12502
lthumb 23.6935 55.0601
rfemur 4.58921 -2.05384 15.2645
rtibia 38.8824
rfoot -4.41545 -4.79117
rtoes -19.6067
lfemur -33.3544 -0.621537 -21.4385
ltibia 28.5034
lfoot 2.32731 4.60664
ltoes -1.93139
407
root 14.3454 18.0041 -5.96553 0.928225 -38.5549 4.84152
lowerback 3.47195 3.35567 -3.77505
upperback 3.50102 4.371 -0.953639
thorax 1.45248 2.10763 1.02616
lowerneck -0.47731 -1.09561 0.339142
upperneck 0.738406 -1.48395 2.25344
head 0.316552 -0.732966 0.620702
rclavicle 7.45443e-016 2.10712e-014
rhumerus 14.1122 -13.0269 -43.6084
rradius 95.6827
rwrist -22.6774
rhand -12.5411 29.1052
rfingers 7.12502
rthumb 13.5355 -0.434866
lclavicle 7.45443e-016 2.10712e-014
lhumerus 6.49655 21.1733 28.796
lradius 98.1701
lwrist 30.2142
lhand -2.35123 25.5852
lfingers 7.12502
lthumb 23.3365 54.1907
rfemur 3.77902 -2.25883 14.545
rtibia 41.2273
rfoot -4.09759 -4.67905
rtoes -19.5414
lfemur -32.8195 -0.179637 -22.1746
ltibia 29.0969
lfoot 1.77581 3.86459
ltoes -0.763479
